<svg xmlns="http://www.w3.org/2000/svg" xmlns:xlink="http://www.w3.org/1999/xlink" version="1.1" width="1000" height="1000" viewBox="0 0 1000 1000" xml:space="preserve">
<desc>Created with Fabric.js 3.5.0</desc>
<defs>
</defs>
<rect x="0" y="0" width="100%" height="100%" fill="#ffffff"/>
<g transform="matrix(0 25 -25 0 500 500)" id="175398">
<path style="stroke: none; stroke-width: 1; stroke-dasharray: none; stroke-linecap: butt; stroke-dashoffset: 0; stroke-linejoin: miter; stroke-miterlimit: 4; is-custom-font: none; font-file-url: none; fill: rgb(0,0,0); fill-rule: nonzero; opacity: 1;" vector-effect="non-scaling-stroke" transform=" translate(-16, -16)" d="M 29 2 H 3 C 2.4 2 2 2.4 2 3 v 10 v 16 c 0 0.6 0.4 1 1 1 h 26 c 0.6 0 1 -0.4 1 -1 V 13 V 3 C 30 2.4 29.6 2 29 2 z M 6 6 c 0 -0.6 0.4 -1 1 -1 h 10 c 0.6 0 1 0.4 1 1 v 4 c 0 0.6 -0.4 1 -1 1 H 7 c -0.6 0 -1 -0.4 -1 -1 V 6 z M 8 28 H 4 V 14 h 1 v 7 c 0 0.6 0.4 1 1 1 h 2 V 28 z M 15 28 h -5 v -6 c 0.6 0 1 -0.4 1 -1 v -7 h 2 v 7 c 0 0.6 0.4 1 1 1 h 1 V 28 z M 22 28 h -5 v -6 h 1 c 0.6 0 1 -0.4 1 -1 v -7 h 2 v 7 c 0 0.6 0.4 1 1 1 V 28 z M 20 8 c 0 -1.7 1.3 -3 3 -3 s 3 1.3 3 3 s -1.3 3 -3 3 S 20 9.7 20 8 z M 28 28 h -4 v -6 h 2 c 0.6 0 1 -0.4 1 -1 v -7 h 1 V 28 z" stroke-linecap="round"/>
</g>
</svg>