<svg xmlns="http://www.w3.org/2000/svg" xmlns:xlink="http://www.w3.org/1999/xlink" version="1.1" width="1000" height="1000" viewBox="0 0 1000 1000" xml:space="preserve">
<desc>Created with Fabric.js 3.5.0</desc>
<defs>
</defs>
<rect x="0" y="0" width="100%" height="100%" fill="#ffffff"/>
<g transform="matrix(0 1 -1 0 500 500)" id="417331">
<g style="" vector-effect="non-scaling-stroke">
		<g transform="matrix(33.3333 0 0 33.3333 -216.6668 -233.3334)">
<path style="stroke: none; stroke-width: 1; stroke-dasharray: none; stroke-linecap: butt; stroke-dashoffset: 0; stroke-linejoin: miter; stroke-miterlimit: 4; is-custom-font: none; font-file-url: none; fill: rgb(41,45,50); fill-rule: nonzero; opacity: 1;" transform=" translate(-5.5, -5)" d="M 7 8 H 4 C 2.9 8 2 7.1 2 6 V 4 C 2 2.9 2.9 2 4 2 H 7 C 8.1 2 9 2.9 9 4 V 6 C 9 7.1 8.1 8 7 8 Z" stroke-linecap="round"/>
</g>
		<g transform="matrix(33.3333 0 0 33.3333 233.3333 -233.3334)">
<path style="stroke: none; stroke-width: 1; stroke-dasharray: none; stroke-linecap: butt; stroke-dashoffset: 0; stroke-linejoin: miter; stroke-miterlimit: 4; is-custom-font: none; font-file-url: none; fill: rgb(41,45,50); fill-rule: nonzero; opacity: 1;" transform=" translate(-19, -5)" d="M 20.8 7 H 17.2 C 16.54 7 16 6.45999 16 5.79999 V 4.20001 C 16 3.54001 16.54 3 17.2 3 H 20.8 C 21.46 3 22 3.54001 22 4.20001 V 5.79999 C 22 6.45999 21.46 7 20.8 7 Z" stroke-linecap="round"/>
</g>
		<g transform="matrix(33.3333 0 0 33.3333 233.3333 16.6666)">
<path style="stroke: none; stroke-width: 1; stroke-dasharray: none; stroke-linecap: butt; stroke-dashoffset: 0; stroke-linejoin: miter; stroke-miterlimit: 4; is-custom-font: none; font-file-url: none; fill: rgb(41,45,50); fill-rule: nonzero; opacity: 1;" transform=" translate(-19, -12.5)" d="M 20.8 14.5 H 17.2 C 16.54 14.5 16 13.96 16 13.3 V 11.7 C 16 11.04 16.54 10.5 17.2 10.5 H 20.8 C 21.46 10.5 22 11.04 22 11.7 V 13.3 C 22 13.96 21.46 14.5 20.8 14.5 Z" stroke-linecap="round"/>
</g>
		<g transform="matrix(33.3333 0 0 33.3333 16.6665 16.6664)">
<path style="stroke: none; stroke-width: 1; stroke-dasharray: none; stroke-linecap: butt; stroke-dashoffset: 0; stroke-linejoin: miter; stroke-miterlimit: 4; is-custom-font: none; font-file-url: none; fill: rgb(41,45,50); fill-rule: nonzero; opacity: 0.37;" transform=" translate(-12.5, -12.5)" d="M 16 13.25 C 16.41 13.25 16.75 12.91 16.75 12.5 C 16.75 12.09 16.41 11.75 16 11.75 H 13.25 V 5.75 H 16 C 16.41 5.75 16.75 5.41 16.75 5 C 16.75 4.59 16.41 4.25 16 4.25 H 9 C 8.59 4.25 8.25 4.59 8.25 5 C 8.25 5.41 8.59 5.75 9 5.75 H 11.75 V 18 C 11.75 19.52 12.98 20.75 14.5 20.75 H 16 C 16.41 20.75 16.75 20.41 16.75 20 C 16.75 19.59 16.41 19.25 16 19.25 H 14.5 C 13.81 19.25 13.25 18.69 13.25 18 V 13.25 H 16 Z" stroke-linecap="round"/>
</g>
		<g transform="matrix(33.3333 0 0 33.3333 233.3333 266.6666)">
<path style="stroke: none; stroke-width: 1; stroke-dasharray: none; stroke-linecap: butt; stroke-dashoffset: 0; stroke-linejoin: miter; stroke-miterlimit: 4; is-custom-font: none; font-file-url: none; fill: rgb(41,45,50); fill-rule: nonzero; opacity: 1;" transform=" translate(-19, -20)" d="M 20.8 22 H 17.2 C 16.54 22 16 21.46 16 20.8 V 19.2 C 16 18.54 16.54 18 17.2 18 H 20.8 C 21.46 18 22 18.54 22 19.2 V 20.8 C 22 21.46 21.46 22 20.8 22 Z" stroke-linecap="round"/>
</g>
</g>
</g>
</svg>