<svg xmlns="http://www.w3.org/2000/svg" xmlns:xlink="http://www.w3.org/1999/xlink" version="1.1" width="1000" height="1000" viewBox="0 0 1000 1000" xml:space="preserve">
<desc>Created with Fabric.js 3.5.0</desc>
<defs>
</defs>
<rect x="0" y="0" width="100%" height="100%" fill="#ffffff"/>
<g transform="matrix(0 33.3333 -33.3333 0 500.0001 499.9996)" id="729155">
<path style="stroke: none; stroke-width: 1; stroke-dasharray: none; stroke-linecap: butt; stroke-dashoffset: 0; stroke-linejoin: miter; stroke-miterlimit: 4; is-custom-font: none; font-file-url: none; fill: rgb(0,0,0); fill-rule: nonzero; opacity: 1;" vector-effect="non-scaling-stroke" transform=" translate(-12, -12.0005)" d="M 21.775 7.517 H 24 v 8.966 h -2.225 z m -8.562 0 h 6.506 c 0.66 0 1.045 0.57 1.045 1.247 v 6.607 c 0 0.84 -0.35 1.112 -1.112 1.112 h -6.439 v -5.696 h 2.225 v 3.505 h 3.135 V 9.54 h -5.36 z m -3.235 0 h 2.19 v 8.966 h -2.19 z M 0 7.517 h 7.854 c 0.66 0 1.045 0.57 1.045 1.247 v 7.72 H 6.708 V 9.774 H 5.427 v 6.708 H 3.438 V 9.775 H 2.191 v 6.708 H 0 Z" stroke-linecap="round"/>
</g>
</svg>