<?xml version="1.0" encoding="iso-8859-1"?>
<!-- Uploaded to: SVG Repo, www.svgrepo.com, Generator: SVG Repo Mixer Tools -->
<svg fill="#000000" height="800px" width="800px" version="1.1" id="Layer_1" xmlns="http://www.w3.org/2000/svg" xmlns:xlink="http://www.w3.org/1999/xlink" 
	 viewBox="0 0 512 512" xml:space="preserve">
<g>
	<g>
		<path d="M503.467,136.533c4.719,0,8.533-3.823,8.533-8.533s-3.814-8.533-8.533-8.533h-34.133v-25.6h34.133
			c4.719,0,8.533-3.823,8.533-8.533c0-4.71-3.814-8.533-8.533-8.533h-34.133v-4.267c0-16.469-13.397-29.867-29.867-29.867H435.2
			V8.533c0-4.71-3.814-8.533-8.533-8.533s-8.533,3.823-8.533,8.533v34.133h-25.6V8.533C392.533,3.823,388.719,0,384,0
			c-4.719,0-8.533,3.823-8.533,8.533v34.133h-25.6V8.533c0-4.71-3.814-8.533-8.533-8.533c-4.719,0-8.533,3.823-8.533,8.533v34.133
			h-25.6V8.533c0-4.71-3.814-8.533-8.533-8.533s-8.533,3.823-8.533,8.533v34.133h-25.6V8.533C264.533,3.823,260.719,0,256,0
			s-8.533,3.823-8.533,8.533v34.133h-25.6V8.533c0-4.71-3.814-8.533-8.533-8.533c-4.719,0-8.533,3.823-8.533,8.533v34.133h-25.6
			V8.533c0-4.71-3.814-8.533-8.533-8.533s-8.533,3.823-8.533,8.533v34.133h-25.6V8.533C136.533,3.823,132.719,0,128,0
			c-4.719,0-8.533,3.823-8.533,8.533v34.133h-25.6V8.533c0-4.71-3.814-8.533-8.533-8.533S76.8,3.823,76.8,8.533v34.133h-4.267
			c-16.469,0-29.867,13.397-29.867,29.867V76.8H8.533C3.814,76.8,0,80.623,0,85.333c0,4.71,3.814,8.533,8.533,8.533h34.133v25.6
			H8.533C3.814,119.467,0,123.29,0,128s3.814,8.533,8.533,8.533h34.133v25.6H8.533c-4.719,0-8.533,3.823-8.533,8.533
			s3.814,8.533,8.533,8.533h34.133v25.6H8.533C3.814,204.8,0,208.623,0,213.333c0,4.71,3.814,8.533,8.533,8.533h34.133v25.6H8.533
			C3.814,247.467,0,251.29,0,256s3.814,8.533,8.533,8.533h34.133v25.6H8.533c-4.719,0-8.533,3.823-8.533,8.533
			s3.814,8.533,8.533,8.533h34.133v25.6H8.533C3.814,332.8,0,336.623,0,341.333s3.814,8.533,8.533,8.533h34.133v25.6H8.533
			C3.814,375.467,0,379.29,0,384s3.814,8.533,8.533,8.533h34.133v25.6H8.533c-4.719,0-8.533,3.823-8.533,8.533
			s3.814,8.533,8.533,8.533h34.133v4.267c0,16.469,13.397,29.867,29.867,29.867H76.8v34.133c0,4.71,3.814,8.533,8.533,8.533
			s8.533-3.823,8.533-8.533v-34.133h25.6v34.133c0,4.71,3.814,8.533,8.533,8.533c4.719,0,8.533-3.823,8.533-8.533v-34.133h25.6
			v34.133c0,4.71,3.814,8.533,8.533,8.533s8.533-3.823,8.533-8.533v-34.133h25.6v34.133c0,4.71,3.814,8.533,8.533,8.533
			c4.719,0,8.533-3.823,8.533-8.533v-34.133h25.6v34.133c0,4.71,3.814,8.533,8.533,8.533s8.533-3.823,8.533-8.533v-34.133h25.6
			v34.133c0,4.71,3.814,8.533,8.533,8.533s8.533-3.823,8.533-8.533v-34.133h25.6v34.133c0,4.71,3.814,8.533,8.533,8.533
			c4.719,0,8.533-3.823,8.533-8.533v-34.133h25.6v34.133c0,4.71,3.814,8.533,8.533,8.533c4.719,0,8.533-3.823,8.533-8.533v-34.133
			h25.6v34.133c0,4.71,3.814,8.533,8.533,8.533s8.533-3.823,8.533-8.533v-34.133h4.267c16.469,0,29.867-13.397,29.867-29.867V435.2
			h34.133c4.719,0,8.533-3.823,8.533-8.533s-3.814-8.533-8.533-8.533h-34.133v-25.6h34.133c4.719,0,8.533-3.823,8.533-8.533
			s-3.814-8.533-8.533-8.533h-34.133v-25.6h34.133c4.719,0,8.533-3.823,8.533-8.533s-3.814-8.533-8.533-8.533h-34.133v-25.6h34.133
			c4.719,0,8.533-3.823,8.533-8.533s-3.814-8.533-8.533-8.533h-34.133v-25.6h34.133c4.719,0,8.533-3.823,8.533-8.533
			s-3.814-8.533-8.533-8.533h-34.133v-25.6h34.133c4.719,0,8.533-3.823,8.533-8.533c0-4.71-3.814-8.533-8.533-8.533h-34.133v-25.6
			h34.133c4.719,0,8.533-3.823,8.533-8.533s-3.814-8.533-8.533-8.533h-34.133v-25.6H503.467z M93.867,175.71
			c0-4.71,3.814-8.533,8.533-8.533s8.533,3.823,8.533,8.533v62.839c0,4.71-3.814,8.533-8.533,8.533s-8.533-3.823-8.533-8.533V175.71
			z M93.867,273.451c0-4.71,3.814-8.533,8.533-8.533s8.533,3.823,8.533,8.533v62.839c0,4.71-3.814,8.533-8.533,8.533
			s-8.533-3.823-8.533-8.533V273.451z M140.8,418.133h-38.4c-4.719,0-8.533-3.823-8.533-8.533v-38.4c0-4.71,3.814-8.533,8.533-8.533
			s8.533,3.823,8.533,8.533v29.867H140.8c4.719,0,8.533,3.823,8.533,8.533S145.519,418.133,140.8,418.133z M140.8,110.933h-29.867
			V140.8c0,4.71-3.814,8.533-8.533,8.533s-8.533-3.823-8.533-8.533v-38.4c0-4.71,3.814-8.533,8.533-8.533h38.4
			c4.719,0,8.533,3.823,8.533,8.533C149.333,107.11,145.519,110.933,140.8,110.933z M175.71,93.867h62.831
			c4.719,0,8.533,3.823,8.533,8.533c0,4.71-3.814,8.533-8.533,8.533H175.71c-4.719,0-8.533-3.823-8.533-8.533
			C167.177,97.69,170.991,93.867,175.71,93.867z M238.549,418.133H175.71c-4.719,0-8.533-3.823-8.533-8.533s3.814-8.533,8.533-8.533
			h62.839c4.719,0,8.533,3.823,8.533,8.533S243.268,418.133,238.549,418.133z M336.29,418.133h-62.831
			c-4.719,0-8.533-3.823-8.533-8.533s3.814-8.533,8.533-8.533h62.831c4.719,0,8.533,3.823,8.533,8.533
			S341.009,418.133,336.29,418.133z M336.29,110.933h-62.839c-4.719,0-8.533-3.823-8.533-8.533c0-4.71,3.814-8.533,8.533-8.533
			h62.839c4.719,0,8.533,3.823,8.533,8.533C344.823,107.11,341.009,110.933,336.29,110.933z M418.133,409.6
			c0,4.71-3.814,8.533-8.533,8.533h-38.4c-4.719,0-8.533-3.823-8.533-8.533s3.814-8.533,8.533-8.533h29.867V371.2
			c0-4.71,3.814-8.533,8.533-8.533s8.533,3.823,8.533,8.533V409.6z M418.133,336.29c0,4.71-3.814,8.533-8.533,8.533
			s-8.533-3.823-8.533-8.533v-62.839c0-4.71,3.814-8.533,8.533-8.533s8.533,3.823,8.533,8.533V336.29z M418.133,238.549
			c0,4.71-3.814,8.533-8.533,8.533s-8.533-3.823-8.533-8.533V175.71c0-4.71,3.814-8.533,8.533-8.533s8.533,3.823,8.533,8.533
			V238.549z M418.133,140.8c0,4.71-3.814,8.533-8.533,8.533s-8.533-3.823-8.533-8.533v-29.867H371.2
			c-4.719,0-8.533-3.823-8.533-8.533c0-4.71,3.814-8.533,8.533-8.533h38.4c4.719,0,8.533,3.823,8.533,8.533V140.8z"/>
	</g>
</g>
</svg>