<?xml version="1.0" encoding="UTF-8" standalone="no"?>
<!-- Uploaded to: SVG Repo, www.svgrepo.com, Generator: SVG Repo Mixer Tools -->

<svg
   width="800px"
   height="800px"
   viewBox="0 0 24 24"
   fill="none"
   version="1.1"
   id="svg2"
   sodipodi:docname="close-circle.svg"
   inkscape:version="1.3.2 (091e20e, 2023-11-25)"
   xmlns:inkscape="http://www.inkscape.org/namespaces/inkscape"
   xmlns:sodipodi="http://sodipodi.sourceforge.net/DTD/sodipodi-0.dtd"
   xmlns="http://www.w3.org/2000/svg"
   xmlns:svg="http://www.w3.org/2000/svg">
  <defs
     id="defs2" />
  <sodipodi:namedview
     id="namedview2"
     pagecolor="#ffffff"
     bordercolor="#000000"
     borderopacity="0.25"
     inkscape:showpageshadow="2"
     inkscape:pageopacity="0.0"
     inkscape:pagecheckerboard="0"
     inkscape:deskcolor="#d1d1d1"
     inkscape:zoom="0.91"
     inkscape:cx="400"
     inkscape:cy="400"
     inkscape:window-width="1440"
     inkscape:window-height="943"
     inkscape:window-x="0"
     inkscape:window-y="25"
     inkscape:window-maximized="0"
     inkscape:current-layer="svg2" />
  <path
     d="m 7.6630116,5.8471638 c -0.644909,-0.5946894 -1.6905386,-0.5946894 -2.3354476,0 -0.6449091,0.5947095 -0.6449091,1.5588946 0,2.1535635 L 9.6645219,12.000043 5.3276081,15.99936 c -0.6449092,0.594506 -0.6449092,1.558751 0,2.153461 0.6449089,0.59471 1.6905385,0.59471 2.3354035,0 l 4.3370464,-3.999113 4.336826,3.999113 c 0.644931,0.59471 1.690604,0.59471 2.335535,0 0.644932,-0.59471 0.644932,-1.558955 0,-2.153665 l -4.337046,-3.999113 4.337046,-3.9993157 c 0.644932,-0.5946283 0.644932,-1.5588134 0,-2.1535027 -0.644931,-0.5947096 -1.690604,-0.5947096 -2.335535,0 L 12.000058,9.846378 Z"
     fill="#1c274c"
     id="path1"
     style="stroke-width:2.11441" />
  <path
     fill-rule="evenodd"
     clip-rule="evenodd"
     d="M12 1.25C6.06294 1.25 1.25 6.06294 1.25 12C1.25 17.9371 6.06294 22.75 12 22.75C17.9371 22.75 22.75 17.9371 22.75 12C22.75 6.06294 17.9371 1.25 12 1.25ZM2.75 12C2.75 6.89137 6.89137 2.75 12 2.75C17.1086 2.75 21.25 6.89137 21.25 12C21.25 17.1086 17.1086 21.25 12 21.25C6.89137 21.25 2.75 17.1086 2.75 12Z"
     fill="#1C274C"
     id="path2" />
</svg>
